<svg xmlns="http://www.w3.org/2000/svg" xmlns:xlink="http://www.w3.org/1999/xlink" width="1080" zoomAndPan="magnify" viewBox="0 0 810 809.999993" height="1080" preserveAspectRatio="xMidYMid meet" version="1.2"><defs/><g id="4477e0c019"><rect x="0" width="810" y="0" height="809.999993" style="fill:#ffffff;fill-opacity:1;stroke:none;"/><rect x="0" width="810" y="0" height="809.999993" style="fill:#ffffff;fill-opacity:1;stroke:none;"/><g style="fill:#000000;fill-opacity:1;"><g transform="translate(13.542802, 662.60866)"><path style="stroke:none" d="M 169.5625 6.953125 C 128.5 6.953125 94.390625 -0.828125 67.234375 -16.390625 C 40.078125 -31.953125 20.316406 -52.875 7.953125 -79.15625 L 61.9375 -144.734375 L 70.21875 -144.734375 C 79.039062 -123.535156 91.566406 -106.804688 107.796875 -94.546875 C 124.023438 -82.296875 142.847656 -76.171875 164.265625 -76.171875 C 188.328125 -76.171875 206.207031 -83.179688 217.90625 -97.203125 C 229.613281 -111.222656 235.46875 -134.019531 235.46875 -165.59375 L 235.46875 -484.1875 L 330.859375 -484.1875 L 330.859375 -163.9375 C 330.859375 -105.425781 317.550781 -62.316406 290.9375 -34.609375 C 264.332031 -6.898438 223.875 6.953125 169.5625 6.953125 Z M 169.5625 6.953125 "/></g><g transform="translate(404.337607, 662.60866)"><path style="stroke:none" d="M 158.640625 -484.1875 L 158.640625 -80.140625 L 376.21875 -80.140625 L 376.21875 0 L 62.921875 0 L 62.921875 -484.1875 Z M 158.640625 -484.1875 "/></g></g></g></svg>